<svg width="166" height="41" viewBox="0 0 166 41" fill="none" xmlns="http://www.w3.org/2000/svg">
<path d="M33.0589 10.4844C35.4349 10.4844 37.3034 11.2226 38.6645 12.6989C40.0255 14.1522 40.706 16.1822 40.706 18.7889V30H34.8236V19.4809C34.8236 18.2583 34.4891 17.3125 33.8201 16.6436C33.1742 15.9515 32.2861 15.6055 31.1558 15.6055C29.9793 15.6055 29.045 15.9746 28.353 16.7128C27.684 17.4279 27.3495 18.4429 27.3495 19.7578V30H21.4326V19.4809C21.4326 18.2583 21.1096 17.3125 20.4637 16.6436C19.8178 15.9515 18.9297 15.6055 17.7993 15.6055C16.6229 15.6055 15.6886 15.9631 14.9966 16.6782C14.3045 17.3933 13.9585 18.4198 13.9585 19.7578V30H8.04153V10.692H13.9585V13.9792C14.466 12.895 15.2388 12.0415 16.2768 11.4186C17.338 10.7958 18.5721 10.4844 19.9793 10.4844C21.4556 10.4844 22.759 10.8304 23.8893 11.5224C25.0197 12.1914 25.8732 13.1603 26.4499 14.429C27.1189 13.2295 28.0301 12.2722 29.1835 11.557C30.3599 10.8419 31.6517 10.4844 33.0589 10.4844ZM51.973 10.4498C53.4494 10.4498 54.7181 10.7843 55.7793 11.4532C56.8404 12.1222 57.6247 13.0334 58.1322 14.1868V10.692H64.0146V30H58.1322V26.5052C57.6247 27.6586 56.8404 28.5698 55.7793 29.2388C54.7181 29.9077 53.4494 30.2422 51.973 30.2422C50.3813 30.2422 48.9511 29.8501 47.6824 29.0657C46.4367 28.2584 45.4448 27.105 44.7066 25.6055C43.9915 24.1061 43.6339 22.3529 43.6339 20.346C43.6339 18.316 43.9915 16.5628 44.7066 15.0865C45.4448 13.587 46.4367 12.4452 47.6824 11.6608C48.9511 10.8535 50.3813 10.4498 51.973 10.4498ZM53.8762 15.6401C52.6074 15.6401 51.5809 16.0553 50.7966 16.8858C50.0353 17.7162 49.6547 18.8696 49.6547 20.346C49.6547 21.8224 50.0353 22.9758 50.7966 23.8062C51.5809 24.6367 52.6074 25.0519 53.8762 25.0519C55.1218 25.0519 56.1368 24.6251 56.9212 23.7716C57.7285 22.9181 58.1322 21.7762 58.1322 20.346C58.1322 18.8927 57.7285 17.7508 56.9212 16.9204C56.1368 16.0669 55.1218 15.6401 53.8762 15.6401ZM80.3376 10.4844C82.5522 10.4844 84.3053 11.2226 85.5972 12.6989C86.912 14.1753 87.5695 16.2053 87.5695 18.7889V30H81.6525V19.4809C81.6525 18.1891 81.3065 17.1857 80.6145 16.4705C79.9455 15.7324 79.0458 15.3633 77.9155 15.3633C76.7159 15.3633 75.7586 15.7439 75.0435 16.5052C74.3515 17.2664 74.0054 18.3506 74.0054 19.7578V30H68.0885V10.692H74.0054V14.2214C74.5591 13.068 75.378 12.1568 76.4622 11.4878C77.5695 10.8189 78.8613 10.4844 80.3376 10.4844ZM98.8076 10.4498C100.284 10.4498 101.553 10.7843 102.614 11.4532C103.675 12.1222 104.459 13.0334 104.967 14.1868V10.692H110.849V29.8962C110.849 31.6955 110.503 33.3103 109.811 34.7405C109.119 36.1938 108.058 37.3472 106.628 38.2007C105.197 39.0542 103.421 39.481 101.299 39.481C98.3924 39.481 96.0625 38.789 94.3093 37.4049C92.5792 36.0438 91.5412 34.1869 91.1951 31.8339H97.0429C97.2275 32.6182 97.6427 33.2295 98.2886 33.6678C98.9576 34.1061 99.8226 34.3253 100.884 34.3253C102.106 34.3253 103.087 33.9677 103.825 33.2526C104.586 32.5606 104.967 31.4418 104.967 29.8962V26.5052C104.459 27.6586 103.675 28.5698 102.614 29.2388C101.553 29.9077 100.284 30.2422 98.8076 30.2422C97.2159 30.2422 95.7857 29.8501 94.517 29.0657C93.2713 28.2584 92.2793 27.105 91.5412 25.6055C90.8261 24.1061 90.4685 22.3529 90.4685 20.346C90.4685 18.316 90.8261 16.5628 91.5412 15.0865C92.2793 13.587 93.2713 12.4452 94.517 11.6608C95.7857 10.8535 97.2159 10.4498 98.8076 10.4498ZM100.711 15.6401C99.442 15.6401 98.4155 16.0553 97.6312 16.8858C96.8699 17.7162 96.4893 18.8696 96.4893 20.346C96.4893 21.8224 96.8699 22.9758 97.6312 23.8062C98.4155 24.6367 99.442 25.0519 100.711 25.0519C101.956 25.0519 102.971 24.6251 103.756 23.7716C104.563 22.9181 104.967 21.7762 104.967 20.346C104.967 18.8927 104.563 17.7508 103.756 16.9204C102.971 16.0669 101.956 15.6401 100.711 15.6401ZM122.259 10.4498C123.735 10.4498 125.004 10.7843 126.065 11.4532C127.126 12.1222 127.91 13.0334 128.418 14.1868V10.692H134.3V30H128.418V26.5052C127.91 27.6586 127.126 28.5698 126.065 29.2388C125.004 29.9077 123.735 30.2422 122.259 30.2422C120.667 30.2422 119.237 29.8501 117.968 29.0657C116.722 28.2584 115.73 27.105 114.992 25.6055C114.277 24.1061 113.92 22.3529 113.92 20.346C113.92 18.316 114.277 16.5628 114.992 15.0865C115.73 13.587 116.722 12.4452 117.968 11.6608C119.237 10.8535 120.667 10.4498 122.259 10.4498ZM124.162 15.6401C122.893 15.6401 121.867 16.0553 121.082 16.8858C120.321 17.7162 119.94 18.8696 119.94 20.346C119.94 21.8224 120.321 22.9758 121.082 23.8062C121.867 24.6367 122.893 25.0519 124.162 25.0519C125.408 25.0519 126.423 24.6251 127.207 23.7716C128.014 22.9181 128.418 21.7762 128.418 20.346C128.418 18.8927 128.014 17.7508 127.207 16.9204C126.423 16.0669 125.408 15.6401 124.162 15.6401ZM150.623 10.4844C152.838 10.4844 154.591 11.2226 155.883 12.6989C157.198 14.1753 157.855 16.2053 157.855 18.7889V30H151.938V19.4809C151.938 18.1891 151.592 17.1857 150.9 16.4705C150.231 15.7324 149.331 15.3633 148.201 15.3633C147.002 15.3633 146.044 15.7439 145.329 16.5052C144.637 17.2664 144.291 18.3506 144.291 19.7578V30H138.374V10.692H144.291V14.2214C144.845 13.068 145.664 12.1568 146.748 11.4878C147.855 10.8189 149.147 10.4844 150.623 10.4844Z" fill="#EEF3F6"/>
</svg>
