<svg width="75" height="27" viewBox="0 0 75 27" fill="none" xmlns="http://www.w3.org/2000/svg">
<path d="M12.0831 6.44977C13.6748 6.44977 15.0935 6.85346 16.3392 7.66085C17.6079 8.44516 18.5998 9.58704 19.3149 11.0865C20.0531 12.5628 20.4222 14.316 20.4222 16.346C20.4222 18.3529 20.0531 20.1061 19.3149 21.6055C18.5998 23.105 17.6079 24.2584 16.3392 25.0657C15.0935 25.8501 13.6748 26.2422 12.0831 26.2422C10.6067 26.2422 9.33798 25.9077 8.27685 25.2388C7.21571 24.5698 6.44293 23.6586 5.9585 22.5052V26H0.0415283V0.394392H5.9585V10.1868C6.44293 9.0334 7.21571 8.12221 8.27685 7.45323C9.33798 6.78426 10.6067 6.44977 12.0831 6.44977ZM10.18 11.6401C8.93429 11.6401 7.90776 12.0669 7.10037 12.9204C6.31606 13.7508 5.9239 14.8927 5.9239 16.346C5.9239 17.7762 6.31606 18.9181 7.10037 19.7716C7.90776 20.6251 8.93429 21.0519 10.18 21.0519C11.4487 21.0519 12.4637 20.6367 13.225 19.8062C14.0093 18.9758 14.4014 17.8224 14.4014 16.346C14.4014 14.8696 14.0093 13.7162 13.225 12.8858C12.4637 12.0553 11.4487 11.6401 10.18 11.6401ZM32.5238 6.44977C34.4384 6.44977 36.1455 6.85346 37.6449 7.66085C39.1674 8.44516 40.3554 9.58704 41.2089 11.0865C42.0855 12.5859 42.5238 14.3391 42.5238 16.346C42.5238 18.3529 42.0855 20.1061 41.2089 21.6055C40.3554 23.105 39.1674 24.2584 37.6449 25.0657C36.1455 25.8501 34.4384 26.2422 32.5238 26.2422C30.6091 26.2422 28.8905 25.8501 27.3681 25.0657C25.8456 24.2584 24.646 23.105 23.7694 21.6055C22.9159 20.1061 22.4891 18.3529 22.4891 16.346C22.4891 14.3391 22.9159 12.5859 23.7694 11.0865C24.646 9.58704 25.8456 8.44516 27.3681 7.66085C28.8905 6.85346 30.6091 6.44977 32.5238 6.44977ZM32.5238 11.5709C31.3934 11.5709 30.4361 11.9861 29.6518 12.8166C28.8905 13.624 28.5099 14.8004 28.5099 16.346C28.5099 17.8916 28.8905 19.068 29.6518 19.8754C30.4361 20.6828 31.3934 21.0865 32.5238 21.0865C33.6541 21.0865 34.5999 20.6828 35.3612 19.8754C36.1224 19.068 36.503 17.8916 36.503 16.346C36.503 14.8004 36.1224 13.624 35.3612 12.8166C34.5999 11.9861 33.6541 11.5709 32.5238 11.5709ZM51.509 0.394392V26H45.592V0.394392H51.509ZM62.9299 6.44977C64.4063 6.44977 65.675 6.78426 66.7361 7.45323C67.7973 8.12221 68.5816 9.0334 69.0891 10.1868V6.69199H74.9715V26H69.0891V22.5052C68.5816 23.6586 67.7973 24.5698 66.7361 25.2388C65.675 25.9077 64.4063 26.2422 62.9299 26.2422C61.3382 26.2422 59.908 25.8501 58.6392 25.0657C57.3935 24.2584 56.4016 23.105 55.6634 21.6055C54.9483 20.1061 54.5908 18.3529 54.5908 16.346C54.5908 14.316 54.9483 12.5628 55.6634 11.0865C56.4016 9.58704 57.3935 8.44516 58.6392 7.66085C59.908 6.85346 61.3382 6.44977 62.9299 6.44977ZM64.833 11.6401C63.5643 11.6401 62.5377 12.0553 61.7534 12.8858C60.9922 13.7162 60.6116 14.8696 60.6116 16.346C60.6116 17.8224 60.9922 18.9758 61.7534 19.8062C62.5377 20.6367 63.5643 21.0519 64.833 21.0519C66.0787 21.0519 67.0937 20.6251 67.878 19.7716C68.6854 18.9181 69.0891 17.7762 69.0891 16.346C69.0891 14.8927 68.6854 13.7508 67.878 12.9204C67.0937 12.0669 66.0787 11.6401 64.833 11.6401Z" fill="#EEF3F6"/>
</svg>
